<?xml version="1.0" encoding="UTF-8"?>
<svg id="Layer_1" data-name="Layer 1" xmlns="http://www.w3.org/2000/svg" xmlns:xlink="http://www.w3.org/1999/xlink" viewBox="0 0 920.03 424.73">
  <defs>
    <style>
      .cls-1 {
        fill: url(#linear-gradient-2);
      }

      .cls-2 {
        fill: url(#linear-gradient-4);
      }

      .cls-3 {
        fill: url(#linear-gradient-3);
      }

      .cls-4 {
        fill: url(#linear-gradient-5);
      }

      .cls-5 {
        fill: url(#linear-gradient-7);
      }

      .cls-6 {
        fill: url(#linear-gradient-6);
      }

      .cls-7 {
        fill: url(#linear-gradient);
      }
    </style>
    <linearGradient id="linear-gradient" x1="1657.27" y1="847.53" x2="1179.36" y2="864.36" gradientTransform="translate(-816.37 -521.91)" gradientUnits="userSpaceOnUse">
      <stop offset="0" stop-color="#902527"/>
      <stop offset=".35" stop-color="#e73934"/>
      <stop offset=".75" stop-color="#ed832a"/>
      <stop offset="1" stop-color="#f1942a"/>
    </linearGradient>
    <linearGradient id="linear-gradient-2" x1="1550.29" y1="531.15" x2="1640.53" y2="933.56" gradientTransform="translate(-816.37 -521.91)" gradientUnits="userSpaceOnUse">
      <stop offset="0" stop-color="#f2b726"/>
      <stop offset=".75" stop-color="#e84736"/>
      <stop offset="1" stop-color="#e63e39"/>
    </linearGradient>
    <linearGradient id="linear-gradient-3" x1="1529.54" y1="595.84" x2="1719.11" y2="600.56" gradientTransform="translate(-816.37 -521.91)" gradientUnits="userSpaceOnUse">
      <stop offset="0" stop-color="#cb591d"/>
      <stop offset="1" stop-color="#f1b025"/>
    </linearGradient>
    <linearGradient id="linear-gradient-4" x1="1479.89" y1="687.46" x2="949.76" y2="776.5" gradientTransform="translate(-816.37 -521.91)" gradientUnits="userSpaceOnUse">
      <stop offset="0" stop-color="#f8cc08"/>
      <stop offset=".47" stop-color="#73ad41"/>
      <stop offset=".75" stop-color="#00815a"/>
      <stop offset="1" stop-color="#007a67"/>
    </linearGradient>
    <linearGradient id="linear-gradient-5" x1="1376.78" y1="727.22" x2="858.35" y2="740.64" gradientTransform="translate(-816.37 -521.91)" gradientUnits="userSpaceOnUse">
      <stop offset="0" stop-color="#d2d529"/>
      <stop offset=".64" stop-color="#4ea360"/>
      <stop offset="1" stop-color="#00649d"/>
    </linearGradient>
    <linearGradient id="linear-gradient-6" x1="1147.49" y1="608.46" x2="817.21" y2="636.15" gradientTransform="translate(-816.37 -521.91)" gradientUnits="userSpaceOnUse">
      <stop offset="0" stop-color="#30a2d1"/>
      <stop offset="1" stop-color="#195094"/>
    </linearGradient>
    <linearGradient id="linear-gradient-7" x1="875.4" y1="618.96" x2="857.7" y2="938.19" gradientTransform="translate(-816.37 -521.91)" gradientUnits="userSpaceOnUse">
      <stop offset="0" stop-color="#2fa3d4"/>
      <stop offset=".72" stop-color="#1a64a3"/>
      <stop offset="1" stop-color="#1e599f"/>
    </linearGradient>
  </defs>
  <path class="cls-7" d="M806.06,269.83l3.37-2.45c70.2,39.84,43.47,130.23-27.63,151.91l1.25,3.47c1.44.51-16.63,1.79-16.63,1.79l-131.59.18-115.34-.62c-22.36-.12-43.67-5.58-64.93-12.4-37.45-12-69.83-34.29-97.42-63.02,19.77-23.85,32.87-49.42,43.2-77.8,3.47-9.54,4.53-19.59,9.91-28.34,16.7,58.92,66.04,91.05,124.18,91.05l228.63.03c23.05,0,51.34-5.21,55.63-30.73,2.26-13.46-3.71-23.96-12.63-33.08Z"/>
  <path class="cls-1" d="M812.84,2.63l-4.64,3.18c-69.59-4.81-134.57,71.89-74.44,127.86l17.37,13.8c11.55,4.31,21.35,12.29,34.15,16.11,21.87,6.53,42.76,14.14,63.56,23.76,21.87,10.11,41.12,24.5,54.57,44.56,13.12,19.57,16.61,42.37,16.63,65.71.08,76.33-63.53,121.31-132.21,125.87-3.36.36-15.44,1.09-24.91,1.09,18.48-7.04,41.41-17.64,55.87-30.27,34.29-29.96,40.05-80.28,4.42-113.57-5.69-5.32-11.29-7.09-17.14-10.89-7.4-4.8-13.21-8.79-21.18-11.65l-56.8-20.35c-30.86-11.06-63.09-27.94-79.47-58.01-22.37-41.08-18.74-93.65,10.97-130.49C693.84,6.85,764.65-6.1,812.84,2.63Z"/>
  <path class="cls-3" d="M812.84,2.63c1.36.06,13.05,1.47,13.05,1.47,30.07,3.6,58.08,17.55,83.83,36.5l-35.2,78.17c-32.08-22.41-64.91-33.69-101.35-29.97l-4.94,1.42c-6.75,1.87-14.81,3.84-20.28,9.25-14.5,14.33-10.84,35.07,3.18,48-19.24-7.18-34.37-23.19-39.89-40.17-7.85-24.15-3.68-47.21,10.32-65.66,21.7-28.61,56.65-40.45,91.29-39Z"/>
  <path class="cls-2" d="M125.63,421.06c-3.21-3.1-1.23-4.59,2.3-6.21,33.8-5.38,64.59-16.83,94.21-33.1,84.42-46.39,111.94-124.76,139.89-214.94,16.27-44.56,43.19-84.82,80.97-113.28,46.32-34.9,86.67-47.19,144.17-47.2,22.22,5.23,44.4,12.91,63.46,27.31-25.66,30.54-30.29,52.55-34.7,89.76-65.42-48.81-158.52-31.18-196.68,39.28-16.24,29.99-24.77,76.9-39.82,114.92-31.15,78.73-101.9,131.52-185.88,141.11-23.27,2.66-45.25,2.34-67.91,2.36Z"/>
  <path class="cls-4" d="M587.16,6.32c-7.96,4.18-19.26,4.85-31.54,5.63-44.61,2.87-69.21,14.29-105.18,40.23-10.59,7.64-19.99,14.46-28.87,24.16-16.45,17.95-31.58,37.57-42.56,59.64-25.67,51.6-31.78,100.12-57,145.32-11.42,20.47-21.64,40.9-38.43,57.26l-17.53,17.08c-13.32,12.97-46.03,31.92-63.66,40.15-20.82,9.73-42.56,15.84-65.13,20.63-4.7,1-9.64.34-11.63,4.64l-125.15.13v-6.59c12.81.07,44.93-14.37,44.93-14.37,36.04-24.77,49.24-69.18,51.4-110.31l4.16-2.15c1.36,9.21,1.14,18.69.4,28l.64,14.52,59.83-.34c36.82-.21,71.48-15.75,97.21-42.15,17.09-17.53,28.25-38.76,35.27-62.02l20.61-68.33c11.96-39.67,34.91-72.93,65.88-100.65C436.91,6.59,515.12-10.62,587.16,6.32Z"/>
  <path class="cls-6" d="M209.71,9.3l4.94,1.34c46.85,7.62,90.42,31.44,122.65,68.53-28.95,38.73-36.99,66.28-51.11,113.65-15.91-61.23-57.15-95.8-121.38-98.41-21.27-.86-41.92-.87-62.48-.33l-4.23,3.47c-43.56,1.3-87.61,32.8-94.24,76.95l-3.39,2.91L.21,60.46C.32,36.07,21.59,6.12,53.25,6.03l111.91-.32c15.61-.04,30.17,1.1,44.56,3.59Z"/>
  <path class="cls-5" d="M102.34,94.38l-.92,71.79c.83,40.13,1.19,82.07-.44,121.89-4.4,11.05,1.58,17.63-6.1,38.23-1.98,5.31-4.71,18.68-9.84,31.59-7.33,18.45-21.28,32.05-36.42,43.99-3.05,2.4-24.32,14.28-48.13,19.32,0-18.23-1.08-183.12,0-243.49,0-26.56,23.65-53.9,43.79-66.62,18.98-12,38.19-16.18,58.07-16.7Z"/>
</svg>