<?xml version="1.0" encoding="UTF-8"?>
<svg id="Layer_1" data-name="Layer 1" xmlns="http://www.w3.org/2000/svg" viewBox="0 0 1000 1000">
  <defs>
    <style>
      .cls-1 {
        fill: #cd2035;
      }
    </style>
  </defs>
  <path class="cls-1" d="M320.23,397.44c-6.08.18-11.34-.96-17.32-1.4l-54.06-3.96,19.32,48.62c11,27.67,26.93,51.97,49.32,71.64,14.58,12.81,29.25,23.87,45.59,34.24l36.35,23.07c-15.79-2.25-29.03-7.82-43.41-12.86-33.69-13.13-63.92-32.27-84.96-62.52l-68.16,88.85c2.09,1.84,5.08,1.14,8.12,1.54,59.01,7.73,110.91,17.96,165.92,41.03,44.25,18.56,86.19,50.18,121.82,82.46l24.57-21.13c18.89-16.24,38.68-30.07,60.03-43.06,19.11-11.63,38.64-20.47,59.74-28.14,49.44-18.07,100.88-27.46,154.4-32.27l-41.05-52.15-26.84-34.98c-19.36,28.73-53.99,49.51-86.04,61.01-13.03,4.68-25.01,9.36-38.99,12.39,4.11-4.19,9.04-5.78,13.68-8.76l24.94-16.03c24.35-15.65,46.23-33.81,64.68-56.19,11.55-14.01,19.58-29.07,26.06-45.91l19.61-50.92c-12.59-.58-23.2,1.08-34.57,1.78l-14.06.87-11.1.94-18.15,1.35c3.94-7.17,7.9-13.32,10.73-20.24,1.65-4.04,3.87-3.44,7.61-3.73,24.69-1.95,48.84-3.52,73.51-3.43,2.62.01,4.77-.29,7.54.1,3.42.49,7.11-1.87,10.93.79l-29.27,73.08c-6.17,15.41-12.2,29.97-20.56,44.54l7.89,8.78,19.92,20.93,21.03,22.05,19.5,20.5,17.03,17.83,22.79,24.05c3.98,4.2,8.01,7.54,11.8,13.05l-27.2-3.38c-30.78-3.83-61.01-1.52-92.03,1.89-77.12,8.48-146.39,40.48-203.86,91.79l-19.65,17.54-14.53,13.74-39.96-35.17c-28.21-24.83-65.29-48.69-100.64-62.24-53.79-20.61-110.89-29.84-168.41-28.09-10.52.32-19.8.72-30.03,2.2-5.01.72-9.86.2-14.94,2.3,3.19-4.99,6.8-8.41,10.64-12.57l21.1-22.81,31.19-33.67,18.6-19.56,20.03-20.95,18.91-19.83c1.27-1.57-1.74-4.3-2.45-5.72-9.09-18.19-16.94-36.19-24.64-55.09l-22.69-55.76c12.71-.05,24.2-.26,36.11.44l30.28,1.77,25.74,2.12c3.75,8.11,7.4,15.13,12.54,23.25Z"/>
  <path class="cls-1" d="M889.26,684.48l-76.42,17-65.78,14.4-57,12.07-100.71,21.86-20.41,19.88c-16.42,15.99-49.68,30.66-74.24,28.04-34.78-4.17-60.07-22.56-82.75-48.23l-78-16.75-21.28-4.75-85.85-18.14-76.74-16.3-30.98-6.95c-10.16-2.28-19.89-5.43-27.97-12.07-1.81-1.49-3.9-4.1-2.89-6.48,2.04-4.8,7.48-6.6,12.67-6.41,10.92.41,21.18,1.92,32.06,4.08l81.71,16.23,98.32,20.66,108.4,24.31,20.93,20.17c29.55,28.48,73.47,32.33,106.14,6.12,3.41-2.74,6.98-4.94,10.08-7.98l18.24-17.94,44.26-9.62,111.73-24.03,33.27-6.96,82.83-17.1c16.54-3.41,32.2-6.56,48.96-8,5.85-.5,14.05,2.16,14.17,7.62.14,6.44-16.28,13.8-22.76,15.24Z"/>
  <path class="cls-1" d="M141.39,635.36c4.28,2.8,8.37.55,12.58,1.35,4.73.9,9.1.75,13.9,1.29,29.33,3.3,57.79,8,86.6,14.05l19.19,4.03c35.37,7.43,69.75,16.77,103.79,28.75,3.96,1.39,7.32,2.42,10.54,4.68-8.67-.04-16.24-2.49-24.53-4.36l-60.51-13.61c-32.83-7.39-64.94-13.95-98.02-19.65l-18.16-3.13c-23.07-3.98-45.61-6.29-69.5-7.38,4.22-4.27,8.5-5.84,12.64-8.76,17.6-8,36.1-10.76,55.38-11.48,11.32-.42,22.28-.9,33.65-.17l12.09.77c29.68,1.89,58.41,6.99,87.01,14.74,46.22,12.53,86.67,33.45,124.09,62.86,9.93,7.81,19.21,15.19,28.18,23.94,2.23,2.17,5.23,3.27,6.57,6.57-9.37-2.49-16.78-6.68-24.48-11.48l-27.26-16.97c-60.36-37.59-122.62-57.46-193.16-66.53-25.65-3.3-65.72-5.58-90.58.49Z"/>
  <path class="cls-1" d="M797.39,642.73c20.2-3.69,38.92-5.29,59.22-6.68-6.64-3.66-13.51-2.16-20.27-3.81-23.44-1.61-45.83-.01-69.42,2.38-50.55,5.13-98.93,17.88-145.13,38.86-20.28,9.21-38.55,20.03-57.54,31.57-14.27,8.67-27.27,18.22-42.58,24.3,5.98-8.2,12.56-13.47,19.57-19.5,19.11-16.45,39.83-30.17,61.52-43.26,6.75-4.08,13.39-7.16,20.59-10.58,34.18-16.27,70.14-25.89,107.61-31.2,8.89-1.26,17.06-2.37,25.91-2.93l13.97-.89c13.74-.87,27.03-.58,40.69.11,25,1.28,51.57,4.44,73.09,19.48-3.9,2.56-7.83.51-11.7,1.25-4.76.91-9.14.81-13.94,1.25-27.49,2.51-53.9,6.31-81.03,11.65l-70.27,13.85-97.12,21.2c14.07-8.27,29.87-11.21,45.15-16.26,6.08-2.01,11.81-3.55,18.1-5l68.23-15.68,55.34-10.1Z"/>
  <g>
    <path class="cls-1" d="M499.51,246.86c-3.83,3.03-6.73,7.03-10.08,10.88-23.48,27-48.44,62.31-60.44,96.1-4.3,12.1-6.52,24.12-8.52,36.12-4.3-10.3-4.45-21.6-4.74-31.93-.62-21.64,5.54-41.51,15.76-60.36,13.71-25.26,30.17-48.27,48.11-70.71l20-25,21,25.39,6.9,9.26c24.9,33.41,55.77,69.21,58.88,113.3.34,4.89.97,9.21-.06,14.22.18-.87-1.72,21.08-3.98,20.86-8.49-44.88-35.09-85.04-64.86-118.48l-17.97-19.64Z"/>
    <path class="cls-1" d="M343.22,299.12c-11.98,43.49-9.43,80.73,12.43,121.97-1.99,1.1-2.9-1.66-4.36-2.55-24.42-14.75-41.21-45.72-40.6-74.55.2-9.54.25-18.4,2.29-27.82,3.86-17.88,8.97-34.9,16.36-52.34,6.12,2.23,11.82,4.21,17.62,7.32l73.96,33.48-12.67,24.61-36.19-17.15-28.85-12.98Z"/>
    <path class="cls-1" d="M638.72,423.01c21.62-37.23,25.59-81.24,14.5-122.84l-60.54,28.75-12.25-24.56,55.62-26.13c10.66-5.01,20.45-9.94,31.53-14.31,16.46,44.24,29.66,92.34-.25,133.27-5.66,7.75-10.84,14.86-18.39,21.03l6.1-12.52c-4.97,2.04-12.01,18.5-16.3,17.3Z"/>
  </g>
  <g>
    <path class="cls-1" d="M508.71,603.41c-.01,5.19-2.36,12.34-6.29,13.54s-6.42-5.85-6.42-9.85l-.09-271.85c0-6.02,1.94-11.95,5.4-15.74,2.44-2.67,5.22,1.05,6.24,2.76,2.46,4.13.7,8.54,1.59,12.67,1.54,7.12.19,12.89.17,20.2l-.61,248.27Z"/>
    <path class="cls-1" d="M473.47,582.86c-4.28-1.27-4.25-36.42-4.28-43.14l-.57-133.65.05-21.13c.02-6.21-.44-28.32,7.67-28.49,7.18-.15,7.55,17.93,7.57,23.71l.51,188.76c.02,7.83,1.28,14.64.21,23.11-4.81-4.32-7.12-10.03-10.03-16.46-1.69,2.06.27,4.39-1.13,7.29Z"/>
    <path class="cls-1" d="M530.67,575.63c-2.16,6.41-3.05,13.17-9.58,18.78l.16-51.35.57-81.17.44-70.67c.03-5.57.94-27.32,8.17-27.22,6.77.09,6.76,21.7,6.73,27.05l-.6,108.26-.61,62.45c-.07,7.03.1,13.73-2.6,20.36-2.61-1.37-.04-3.66-2.66-6.5Z"/>
    <path class="cls-1" d="M456.38,538.89c-9.6-1.65-10.94-24.25-11.05-31.54l-1.17-77.79.66-12.62c.11-2.07-1.34-22.09,6.57-21.01,4.5.62,6.26,14.82,6.27,18.38l.5,117.4c.01,2.63-.45,4.56-1.78,7.17Z"/>
    <path class="cls-1" d="M558.44,506.26c-.23,6.02-2.94,30.37-8.95,30.61-3.98.16-2.9-16.39-2.85-22.12l.7-91.87c.04-5.3.93-21.36,7.1-21.8,4.67-.33,5.67,14.57,5.63,18.9l-.55,57.42-1.08,28.87Z"/>
    <path class="cls-1" d="M579.66,513.62c-.87,5.55-4.7,15.9-9.22,15.12-3.15-.54-1.17-31.83-1.02-36.21l.89-26.22c.29-8.65.21-29.11,5.05-34.97,1.31-1.59,4.79-.13,5.2,1.94.78,3.95,2.18,7.67,2.22,11.7.21,20.75.04,48.42-3.12,68.63Z"/>
    <path class="cls-1" d="M435.57,509.84c.08,4.22.46,8.66-1.7,11.97-1.32,2.03-4.59.38-5.65-1.41-3.84-6.49-4.26-13.78-4.77-21.33-1.2-17.81-.94-35.23-.52-53.15.09-3.84,1.01-13.04,5.42-12.94,4.7.11,5.76,16.31,5.57,20.91-.26,6.46.8,12.53.92,18.92l.71,37.03Z"/>
    <path class="cls-1" d="M595.88,515.22c-.7.9-2.2,1.01-2.66,1.32-4.25,2.83-1.71-24.18-1.49-26.63.64-7.03.34-13.75.63-20.63l.9-20.95c.27-6.29.95-12.71,5.74-17.97,6.87,3.69,4.95,36.15,4.56,43.25l-1.09,19.69c-.42,7.69-1.47,15.33-6.6,21.91Z"/>
    <path class="cls-1" d="M414.37,489.58c.04.94,2.98,31.72-4.79,22.55-4.47-5.27-5.56-12.21-6.09-19.21-1.34-17.95-1.41-35.45-.23-53.37.18-2.71,1.59-6.15,4.15-7.27,4.76-2.49,5.94,31.55,6.08,35.17l.88,22.14Z"/>
    <path class="cls-1" d="M392.31,502.14c-4.99-.27-6.7-4.23-7.73-8.03-2.83-10.38-3.9-31.05-3.63-42.27.16-6.9-.72-14.69,3.41-20.6,1.52-2.18,4.13,1.89,4.64,3.57,3.18,10.44,3.06,21.01,3.45,31.76l.7,19.2c.2,5.38,1.87,10.62-.82,16.37Z"/>
    <path class="cls-1" d="M614.85,507.62c-4.7,4.25-2.77-25.27-2.67-26.66l2.35-33.34c.27-3.77,0-9.18,3.66-11.28,2.83-1.62,5.01,2.72,5.23,5.38,1.39,17.27.74,34.26-2.13,51.39-.86,5.14-2.07,10.57-6.44,14.52Z"/>
    <path class="cls-1" d="M639.31,440.04c5.73.81,3.6,62.28-8.68,58.07l4.6-51.67c.25-2.77,1.63-5.1,4.07-6.41Z"/>
    <path class="cls-1" d="M374.15,495.67c-10.79,6.01-14.56-52.31-8.29-51.97,3.13,1.71,4.26,4.6,4.54,7.96l3.75,44.01Z"/>
    <path class="cls-1" d="M649.94,482.06c.89-10.44,2.21-20.13,3.66-30.18.34-2.37,2.16-4.43,4.03-5.03,2.33,2.82,2.42,5.75,2.44,9.03-.46,9.48-2.17,18.98-10.13,26.18Z"/>
    <path class="cls-1" d="M351.44,460.54c1.13,13,3.29,16.63,3.32,27.43-8.1-.83-14-31.16-6.35-31.14,1.49,0,2.86,1.83,3.03,3.72Z"/>
  </g>
</svg>