<?xml version="1.0" encoding="UTF-8"?>
<svg id="Layer_1" data-name="Layer 1" xmlns="http://www.w3.org/2000/svg" viewBox="0 0 381.13 448.14">
  <defs>
    <style>
      .cls-1 {
        fill: #f58020;
      }

      .cls-2 {
        fill: #2574b9;
      }
    </style>
  </defs>
  <g>
    <path class="cls-2" d="M275.15,398.91c-31.09,30.93-76.9,44.12-118.19,29.78-29.03-10.08-51.84-30.85-66.77-57.59-12.03-21.53-17.37-45.3-18.74-69.95l.16-62.81c.03-13.3,3.03-25.54,7.52-38.28-11.72,4.48-22.12,9.64-32.7,15.49-11.25,6.74-21.02,14.14-30.8,24.14l-.2-61.83c6.36-10.01,14.16-17.37,24.82-22.63l.28-36.68c0-.77.97-1.4.92-1.92-.18-1.69-6.3-4.23-5.11-10.64.58-3.1,3.24-6.32,6.89-7.26,4.86-1.25,9.22.77,11.3,5.13,1.96,4.11.19,8.87-4.27,11.81l.63,29.58c57.97-35.44,126.4-40.46,186.86-8.92-5.82,2.28-10.82,2.86-16.39,4.32-22.02,5.74-42.9,14.22-61.33,27.55-22.36,16.18-38.29,40.74-38.31,69.09l-.05,77.86c-.02,34.39,13.4,70,45.03,86.46,31.71,16.51,69.39,11.89,101.63-.5l6.81-2.2Z"/>
    <path class="cls-2" d="M27.64,149.68l-11.55,9.38-.39-67.88c-11.82-4.38-18.02-15.62-14.89-27.14,3.24-11.91,15.51-18.72,27.8-15.19,9.54,2.74,15.6,11.39,15.7,20.83.11,9.99-6.51,17.87-16.41,21.68l-.26,58.34ZM33.13,69.94c0-6.18-5.01-11.19-11.18-11.19s-11.18,5.01-11.18,11.19,5.01,11.19,11.18,11.19,11.18-5.01,11.18-11.19Z"/>
  </g>
  <g>
    <path class="cls-1" d="M291.19,402.23c3.95-4.97,4.14-10.31.05-14.51-32.98-33.84-80.05-84.93-86.4-133.56,47.87,11.54,89.81,48.86,120.15,85.61.98,1.19,2.15,2.04,3.28,2.03s2.9-1.66,2.9-3.86l.17-219.39c0-1.81.95-2.78,1.82-3.31s2.35-.43,3.7.11l39.08,15.75c3.98,1.6,5.19,5.04,5.19,9.21l-.07,166.91c-.02,44.71-22.4,86.03-58.96,111.11-13.3,9.12-26.74,16.02-42.17,20.81-24.22,7.52-48.93,10.72-74.55,8.07,31.03-6.62,64.81-19.5,85.8-44.99Z"/>
    <path class="cls-1" d="M181.95,384.78c-26.66-7.8-48.26-33.8-48.31-62.59l-.13-75.73c-.05-28.02,16.73-51.87,43.38-61.01,36.63-12.56,78.31,3.06,108.5,25.15,7.1,5.2,12.73,11.05,20.97,16.31l1.79-111.61c.06-3.83,1.26-5.42,3.8-8.04,7.94-8.2,18.66-15.14,25.69-24.11,2.17-11.2-.05-23.44.73-35.33-13.03-3.99-20.52-15.33-18.2-28.64,1.47-8.46,8.49-15.19,15.44-17.58,8.97-3.08,18.51-1.79,25.11,4.39,6.95,6.51,9.57,15.18,7.38,24.21-2.03,8.36-8.79,14.75-18.07,17.64l-.61,41.29c-.04,2.97-3.75,4.42-5.56,6.14-7.38,7-14.32,13.52-22.27,20l-1.28,96.9-1.77,68c-.21,7.89-.9,15.09-1.37,23.72-25.73-27.9-62.97-57.71-101.51-66.8-10.41-2.46-33.61-7.18-33.62,9.29l-.07,138.4ZM357.21,24.19c0-7.15-5.79-12.95-12.94-12.95s-12.94,5.8-12.94,12.95,5.79,12.95,12.94,12.95,12.94-5.8,12.94-12.95Z"/>
    <path class="cls-1" d="M294.36,169.51c.41,4.07,7.26,6.53,3.91,12.15-1.75,2.95-4.32,6.61-9.56,6.69-4.74.07-7.52-2.68-9.61-5.61-3.4-4.78,1.7-8.13,2.58-12.03l.91-64.64c-8.18-3.61-11.97-11.32-10.89-18.77,1.18-8.17,7.96-13.5,15.63-13.96,8.38-.5,15.66,5.31,17.36,13.68,1.77,8.66-2.61,15.94-11.28,18.96.76,21.45-1.22,42.08.94,63.54ZM295.21,90.02c0-3.79-3.07-6.86-6.85-6.86s-6.85,3.07-6.85,6.86,3.07,6.86,6.85,6.86,6.85-3.07,6.85-6.86Z"/>
  </g>
</svg>