<?xml version="1.0" encoding="UTF-8"?>
<svg id="Layer_1" data-name="Layer 1" xmlns="http://www.w3.org/2000/svg" viewBox="0 0 926.85 197.42">
  <defs>
    <style>
      .cls-1 {
        fill: #f58020;
      }

      .cls-2 {
        fill: #2574b9;
      }
    </style>
  </defs>
  <g>
    <g>
      <path class="cls-2" d="M121.16,175.74c-13.7,13.62-33.89,19.42-52.08,13.1-12.79-4.45-22.83-13.6-29.41-25.39-5.3-9.49-7.65-19.96-8.24-30.82l.08-27.67c.02-5.86,1.34-11.25,3.32-16.87-5.17,1.97-9.75,4.24-14.41,6.82-4.96,2.97-9.26,6.23-13.58,10.63l-.08-27.24c2.8-4.41,6.24-7.65,10.94-9.96l.13-16.16c0-.34.43-.61.4-.85-.08-.74-2.78-1.87-2.25-4.69.26-1.36,1.43-2.78,3.04-3.2,2.14-.55,4.06.34,4.98,2.26.86,1.81.08,3.91-1.88,5.2l.27,13.03c25.55-15.6,55.7-17.8,82.33-3.89-2.57,1-4.77,1.26-7.22,1.9-9.7,2.53-18.9,6.25-27.03,12.13-9.86,7.12-16.88,17.94-16.89,30.43l-.04,34.3c-.02,15.15,5.89,30.84,19.82,38.1,13.97,7.28,30.57,5.25,44.78-.2l3-.97Z"/>
      <path class="cls-2" d="M12.16,65.88l-5.09,4.13-.16-29.91c-5.21-1.93-7.94-6.88-6.56-11.96,1.43-5.25,6.84-8.25,12.25-6.69,4.2,1.21,6.87,5.02,6.91,9.18.05,4.4-2.87,7.87-7.23,9.55l-.13,25.7ZM14.6,30.75c0-2.72-2.2-4.93-4.92-4.93s-4.93,2.21-4.93,4.93,2.2,4.93,4.92,4.93,4.93-2.21,4.93-4.93Z"/>
    </g>
    <g>
      <path class="cls-1" d="M128.23,177.21c1.74-2.19,1.82-4.54.02-6.39-14.53-14.91-35.25-37.44-38.04-58.86,21.09,5.09,39.56,21.54,52.92,37.74.43.52.95.9,1.44.9s1.28-.73,1.28-1.7l.12-96.66c0-.8.42-1.22.8-1.46s1.04-.19,1.63.05l17.21,6.95c1.75.71,2.29,2.22,2.28,4.06l-.06,73.54c-.02,19.7-9.89,37.9-26,48.94-5.86,4.02-11.78,7.05-18.58,9.16-10.67,3.31-21.56,4.71-32.85,3.54,13.67-2.91,28.56-8.58,37.81-19.81Z"/>
      <path class="cls-1" d="M80.11,169.5c-11.74-3.44-21.26-14.9-21.27-27.59l-.04-33.37c-.02-12.35,7.38-22.85,19.13-26.87,16.14-5.53,34.5,1.36,47.8,11.1,3.13,2.29,5.61,4.87,9.23,7.19l.81-49.17c.03-1.69.56-2.39,1.68-3.54,3.5-3.61,8.22-6.67,11.32-10.62.96-4.93-.02-10.33.33-15.57-5.74-1.76-9.04-6.76-8.01-12.62.65-3.73,3.75-6.69,6.81-7.74,3.95-1.36,8.16-.78,11.06,1.94,3.06,2.87,4.22,6.69,3.25,10.67-.9,3.68-3.88,6.5-7.97,7.77l-.28,18.19c-.02,1.31-1.65,1.95-2.45,2.7-3.25,3.08-6.31,5.95-9.82,8.81l-.58,42.69-.79,29.96c-.09,3.48-.4,6.65-.61,10.45-11.33-12.3-27.73-25.44-44.71-29.45-4.59-1.08-14.81-3.17-14.82,4.09l-.06,60.98ZM157.39,10.66c0-3.15-2.55-5.71-5.7-5.71-3.15,0-5.7,2.55-5.7,5.7,0,3.15,2.55,5.71,5.7,5.71,3.15,0,5.7-2.55,5.7-5.7Z"/>
      <path class="cls-1" d="M129.67,74.67c.18,1.79,3.2,2.88,1.72,5.35-.77,1.3-1.9,2.91-4.21,2.94-2.09.03-3.31-1.18-4.23-2.47-1.5-2.11.75-3.58,1.14-5.3l.41-28.48c-3.61-1.59-5.27-4.99-4.8-8.27.52-3.6,3.51-5.95,6.89-6.15,3.69-.22,6.9,2.34,7.65,6.03.78,3.82-1.15,7.02-4.97,8.35.33,9.45-.55,18.54.4,27.99ZM130.06,39.65c0-1.67-1.35-3.02-3.02-3.02s-3.02,1.35-3.02,3.02,1.35,3.02,3.02,3.02,3.02-1.35,3.02-3.02Z"/>
    </g>
  </g>
  <g>
    <g>
      <path class="cls-1" d="M598.56,98.3c-9.72,1.04-17.44,7.99-17.55,17.72l-.46,43.04c-6.74.51-13.12.46-20.02-.02l.02-76.38c6.47-.61,13.15-.25,19.93-.08.34,4.09-.63,7.52,1.37,11.23,11.46-14.19,32.44-17.11,46.39-4.89,6.38,5.59,8.74,14.13,8.78,22.52l.23,47.68c-7.08.61-13.31.29-20.32,0l-.11-43.97c-.01-5.14-1.44-9.74-5.04-12.93-3.26-2.89-7.86-4.48-13.2-3.91Z"/>
      <path class="cls-1" d="M686.56,147.73c10,.94,18.72-.84,27.03-5.57,2.73,4.01,5.49,7.19,7.56,11.4-19.39,10.75-55.26,11.77-68.42-9.43-9.44-15.2-8.03-36.78,4.12-50.22,12.96-14.33,34.45-16.3,50.82-7.42,15.7,8.52,19.21,25.42,17.84,42.22l-57.95.14c.37,10.4,8.43,17.88,18.99,18.88ZM706.6,115.41c1.02-11.42-7.19-19.03-17.71-19.73-12.06-.81-21.68,7.82-21.23,19.81l38.95-.07Z"/>
      <path class="cls-1" d="M858.86,151.46c-7.6-8.94-6.54-23,2.31-30.24,6.14-5.02,13.8-6.95,21.47-7.07l24.2-.39c1.35-3.52.97-7.75-1.22-11.32-6.28-10.21-31.64-5.61-41.04-.68l-6.66-12.74c14.89-6.89,31.31-9.19,47.2-5.56,12.36,2.82,21.34,11.89,21.42,24.83l.31,50.64-17.68.02c-.71-3.08.45-5.74-1.02-9.15-11.51,13.88-38.71,14.08-49.28,1.66ZM897.93,145.96c8.25-3.87,11.3-12.31,8.88-20.17-9.42.29-30.94-2.78-33.46,8.27-1.03,4.51-.22,9.62,4.44,11.87,5.98,2.89,13.81,3,20.14.03Z"/>
      <path class="cls-1" d="M782.96,145.77c.72,4.58,1.16,8.94,1.03,13.84-7.53,1.71-15.27,1.71-22.94.36-10.97-1.93-18.62-10.5-18.76-21.79l-.49-39.63-13.34-.81c-.55-4.86-.36-9.7-.17-14.91l13.49-.82.5-31.07,19.68.08.27,31.11,22.48.51c.87,4.8.67,9.86.26,15.08l-22.84.42.1,37.55c.02,5.74,4.34,9.85,9.83,10.38,3.49.34,6.34.19,10.91-.3Z"/>
      <path class="cls-1" d="M850.45,99.17c-6.14.07-11.91-.37-17.85,1.94-7.36,2.87-13.27,9.39-13.34,17.69l-.35,40.55-20.34-.06v-76.54s19.84-.17,19.84-.17l1.36,13.17c7.18-9.78,18.74-14.75,30.65-13.17.55,5.32.27,10.04.02,16.59Z"/>
    </g>
    <g>
      <path class="cls-2" d="M422.67,136.66l16.27,22.17-22.67.31-26.79-35.54c-3.77,4.03-9.05,7.75-11.76,12.42l-.71,23.01-19.77.69-.18-120.4,20.14-.1.25,77.41,31.93-35.98,24.2.03-28.9,31.92c5.51,8.57,12,15.91,17.99,24.07Z"/>
      <path class="cls-2" d="M494.3,149.03c-8.81,12.34-27.93,13.82-41.11,9.11-7.94-2.84-13.53-9.23-14.7-16.11-1.55-9.1,1.19-17.47,8.5-22.41,14.02-9.49,29.64-5.44,45.08-7.3,2.47-1.86,1.13-8.1-.65-11.07-6.14-10.22-31.96-5.64-41.37-.56l-6.84-13.02c17.26-9.33,56.8-12.87,66.52,8.44,2.54,5.57,3.43,12.64,3.4,18.89l-.2,44c-6.64.68-12.19.21-17.98-.1-.42-3.51.35-6.26-.64-9.87ZM482.29,146.41c9-3.28,13.26-12.44,10.07-21.06h-18.45c-4.66-.02-9.69,1.12-13.18,4.23-2.82,2.51-3.19,6.85-2.26,9.99,2.9,9.69,15.68,9.8,23.81,6.84Z"/>
      <path class="cls-2" d="M244.14,145.3c1.12,4.56.94,9.15,1.05,14.3-8.3,1.56-16.76,1.57-25-.7-9.49-2.61-15.92-11.03-16.07-20.98l-.6-41.69-13.94-.38c-.35-5.28-.39-10.31.03-15.34l14.01-.43.22-28.82,19.69.11.81,28.69,20.99.44c.57,5.11.3,10.15.13,15.43l-21.92.34c-.58,12.01.07,23.16.47,34.75.17,4.96-.5,10.08,4.31,13.1,4.44,2.25,9.17,2.64,15.8,1.17Z"/>
      <rect class="cls-2" x="523.66" y="39.19" width="20.26" height="120.45"/>
      <path class="cls-2" d="M308.87,96.85c-13.59-1.66-30.13,4.44-30.24,19.93-.1,14.25.73,28.12-.5,42.2l-19.99.23-.08-78.79,19.65-.07c.81,4.17-.4,8.02,1.24,12.56,7.61-9.11,18.27-14.11,29.81-12.39.46,5.26.26,10.1.1,16.32Z"/>
      <rect class="cls-2" x="323.21" y="80.37" width="20.91" height="78.81"/>
      <path class="cls-2" d="M333.19,62.78c-6.98-.47-11.74-5.51-12.4-10.96-.79-6.55,2.42-12.71,8.89-14.79,7.9-2.54,15.69,2.86,16.86,10.47,1.21,7.89-4.58,15.87-13.36,15.28Z"/>
    </g>
  </g>
</svg>